#!OML:ASF H:\Terrain\Patient Classification 1\Animal2\Wednesday\Animal2.ASF
:FULLY-SPECIFIED
:DEGREES
2764
root -4.62051 16.4086 -3.64321 23.2123 -3.33484 -3.38103
lowerback 26.3833 -0.860703 1.097
upperback 10.1526 -0.852815 0.232311
thorax -3.35971 -0.416306 -0.13335
lowerneck 8.29682 7.29121 15.3281
upperneck -28.7704 6.77412 -26.6928
head -8.28029 4.75462 -13.221
rclavicle -4.37326e-015 -7.55382e-015
rhumerus -16.6555 20.9481 -91.1013
rradius 131.243
rwrist 4.36487
rhand -23.0131 7.35718
rfingers 7.12502
rthumb 3.43045 -22.595
lclavicle -4.37326e-015 -7.55382e-015
lhumerus -22.8776 -5.87427 75.7165
lradius 137.566
lwrist 50.9482
lhand -31.727 44.5063
lfingers 7.12502
lthumb -4.9851 -285.572
rfemur -59.6451 -2.76568 13.9823
rtibia 55.5504
rfoot -16.9001 -9.25367
rtoes -23.3955
lfemur -60.7376 4.65406 -5.59234
ltibia 53.8159
lfoot -16.23 -0.707815
ltoes -38.6029
2765
root -4.62417 16.4067 -3.64323 23.1351 -3.34498 -3.33387
lowerback 26.6178 -0.841814 0.974926
upperback 10.1333 -0.85877 0.157871
thorax -3.49248 -0.420318 -0.13988
lowerneck 7.9855 7.40604 15.3132
upperneck -28.3871 6.95879 -26.6637
head -8.04352 4.83054 -13.1181
rclavicle -1.19271e-014 1.70955e-014
rhumerus -16.5266 21.1367 -91.0236
rradius 131.256
rwrist 4.31077
rhand -23.005 7.15942
rfingers 7.12502
rthumb 3.43824 -22.7926
lclavicle -1.19271e-014 1.70955e-014
lhumerus -22.9295 -6.23734 75.7472
lradius 137.767
lwrist 51.7558
lhand -33.6026 43.9375
lfingers 7.12502
lthumb -6.79592 -286.192
rfemur -59.5967 -2.85245 14.0235
rtibia 55.6082
rfoot -16.807 -9.44887
rtoes -24.6127
lfemur -60.667 4.59792 -5.60066
ltibia 53.8868
lfoot -16.2994 -0.732831
ltoes -38.4202
2766
root -4.62553 16.3968 -3.64937 23.2853 -3.15981 -3.36301
lowerback 26.6772 -0.884996 1.01737
upperback 9.97326 -0.896616 0.193736
thorax -3.69845 -0.438499 -0.112267
lowerneck 8.09917 7.39465 15.4119
upperneck -28.2116 6.96328 -26.8092
head -7.99042 4.84252 -13.1835
rclavicle 1.47101e-014 1.98785e-015
rhumerus -16.6842 21.3207 -90.956
rradius 131.32
rwrist 4.3037
rhand -22.986 7.1766
rfingers 7.12502
rthumb 3.45664 -22.7751
lclavicle 1.47101e-014 1.98785e-015
lhumerus -23.1004 -6.42325 75.7561
lradius 137.911
lwrist 51.9094
lhand -34.0046 43.4614
lfingers 7.12502
lthumb -7.18405 -286.68
rfemur -59.8168 -3.09888 14.2127
rtibia 55.6973
rfoot -16.73 -9.66735
rtoes -25.9249
lfemur -60.9798 4.40842 -5.44757
ltibia 53.9886
lfoot -16.2568 -0.505497
ltoes -39.2218
2767
root -4.62829 16.3848 -3.65138 23.4566 -3.04969 -3.42615
lowerback 26.5768 -0.902052 0.984653
upperback 9.90227 -0.921941 0.253109
thorax -3.72819 -0.452373 -0.0222571
lowerneck 8.0808 7.42697 15.5575
upperneck -28.0638 6.99731 -27.0687
head -7.90068 4.8717 -13.2962
rclavicle 0 1.98785e-015
rhumerus -16.8953 21.4988 -90.8856
rradius 131.423
rwrist 4.22876
rhand -22.9517 7.27591
rfingers 7.12502
rthumb 3.48975 -22.6753
lclavicle 0 1.98785e-015
lhumerus -23.2352 -6.37011 75.7563
lradius 138.048
lwrist 51.8753
lhand -34.1428 43.8013
lfingers 7.12502
lthumb -7.31743 -286.345
rfemur -60.083 -3.2692 14.3986
rtibia 55.8006
rfoot -16.6769 -9.69482
rtoes -26.2484
lfemur -61.2763 4.34103 -5.2932
ltibia 54.0879
lfoot -16.1873 -0.219551
ltoes -40.0484
2768
root -4.63186 16.3783 -3.64738 23.4983 -3.05886 -3.48751
lowerback 26.433 -0.882837 0.947695
upperback 9.98372 -0.912101 0.213566
thorax -3.56963 -0.447333 -0.0494757
lowerneck 7.73898 7.50057 15.6816
upperneck -27.8017 7.07753 -27.2677
head -7.70166 4.90468 -13.3331
rclavicle 1.70955e-014 -3.97569e-015
rhumerus -16.8996 21.5226 -90.8894
rradius 131.291
rwrist 4.195
rhand -22.9692 7.63001
rfingers 7.12502
rthumb 3.47281 -22.3214
lclavicle 1.70955e-014 -3.97569e-015
lhumerus -23.1972 -6.19825 75.5979
lradius 137.981
lwrist 51.8595
lhand -34.245 43.5516
lfingers 7.12502
lthumb -7.41604 -286.598
rfemur -60.1804 -3.34131 14.5391
rtibia 55.8801
rfoot -16.7603 -9.48361
rtoes -25.4836
lfemur -61.329 4.37628 -5.19386
ltibia 54.1666
lfoot -16.167 -0.151772
ltoes -40.0518
2769
root -4.63235 16.3777 -3.64533 23.4587 -3.02181 -3.64376
lowerback 26.3331 -0.904057 1.13776
upperback 10.1542 -0.902484 0.134031
thorax -3.33674 -0.436784 -0.250038
lowerneck 7.32374 7.5135 15.6737
upperneck -27.7451 7.05184 -27.2587
head -7.60723 4.87331 -13.2847
rclavicle -8.34896e-015 1.19271e-015
rhumerus -16.5818 21.5009 -90.8268
rradius 131.131
rwrist 4.20195
rhand -23.0734 8.01499
rfingers 7.12502
rthumb 3.37225 -21.9381
lclavicle -8.34896e-015 1.19271e-015
lhumerus -22.9239 -5.95515 75.4763
lradius 137.826
lwrist 51.9547
lhand -34.1747 42.8091
lfingers 7.12502
lthumb -7.34819 -287.339
rfemur -60.1264 -3.38548 14.76
rtibia 55.9081
rfoot -16.8651 -9.26491
rtoes -24.7046
lfemur -61.2873 4.35949 -4.97518
ltibia 54.2272
lfoot -16.2054 -0.208307
ltoes -39.4687
